<svg width="1021" height="1021" viewBox="0 0 1021 1021" fill="none" xmlns="http://www.w3.org/2000/svg">
<path fill-rule="evenodd" clip-rule="evenodd" d="M510.38 1020.66C791.963 1020.66 1020.23 792.392 1020.23 510.809C1020.23 229.227 791.963 0.95874 510.38 0.95874C228.797 0.95874 0.529495 229.227 0.529495 510.809C0.529495 792.392 228.797 1020.66 510.38 1020.66ZM189.719 510.809C189.719 317.303 295.523 148.509 452.436 59.1223C451.841 59.1979 451.246 59.2747 450.651 59.3526C227.401 88.6031 55.0418 279.577 55.0418 510.808C55.0418 742.655 228.32 934.03 452.436 962.494C295.523 873.108 189.719 704.314 189.719 510.809Z" fill="#DE2549"/>
</svg>
